<?xml version="1.0" encoding="utf-8"?>
<!-- Generator: Adobe Illustrator 23.0.1, SVG Export Plug-In . SVG Version: 6.00 Build 0)  -->
<svg version="1.1" id="Livello_1" xmlns="http://www.w3.org/2000/svg" xmlns:xlink="http://www.w3.org/1999/xlink" x="0px" y="0px"
	 viewBox="0 0 21.9 2.5" style="enable-background:new 0 0 21.9 2.5;" xml:space="preserve">
<style type="text/css">
	.st0{display:none;fill:#DA291C;}
	.st1{fill:#DA291C;}
</style>
<g>
	<path class="st0" d="M11.1-1.7c0.6,0,0.9-0.4,1.1-0.8C12.4-2.8,12.5-3,12.8-3c0.2,0,0.4,0.2,0.6,0.5c0.2,0.3,0.5,0.8,1.1,0.8
		s0.9-0.4,1.1-0.8C15.8-2.8,15.9-3,16.2-3c0.2,0,0.4,0.2,0.6,0.5s0.5,0.8,1.1,0.8s0.9-0.4,1.1-0.8C19.2-2.8,19.3-3,19.6-3
		c0.2,0,0.4,0.2,0.6,0.5s0.5,0.8,1.1,0.8c0.2,0,0.3-0.1,0.3-0.3s-0.1-0.3-0.3-0.3c-0.2,0-0.4-0.2-0.6-0.5s-0.5-0.8-1.1-0.8
		s-0.9,0.4-1.1,0.8c-0.2,0.3-0.3,0.5-0.6,0.5c-0.2,0-0.4-0.2-0.6-0.5s-0.5-0.8-1.1-0.8s-0.9,0.4-1.1,0.8c-0.2,0.3-0.3,0.5-0.6,0.5
		c-0.2,0-0.4-0.2-0.6-0.5c-0.2-0.3-0.5-0.8-1.1-0.8s-0.9,0.4-1.1,0.8c-0.2,0.3-0.3,0.5-0.6,0.5c-0.2,0-0.3,0.1-0.3,0.3
		S11-1.7,11.1-1.7z"/>
	<path class="st1" d="M11,1.7c-0.2,0-0.4-0.2-0.6-0.5c-0.2-0.3-0.5-0.8-1.1-0.8S8.4,0.8,8.2,1.2C8,1.5,7.8,1.7,7.6,1.7
		C7.3,1.7,7.2,1.5,7,1.2S6.5,0.5,5.9,0.5S5,0.9,4.8,1.2C4.6,1.5,4.4,1.7,4.2,1.7C4,1.7,3.8,1.5,3.6,1.2S3.1,0.5,2.5,0.5
		S1.6,0.9,1.4,1.3C1.2,1.5,1,1.7,0.8,1.7S0.5,1.9,0.5,2c0,0.2,0.1,0.3,0.3,0.3c0.6,0,0.9-0.4,1.1-0.8C2.1,1.2,2.2,1,2.5,1
		c0.2,0,0.4,0.2,0.6,0.5c0.2,0.3,0.5,0.8,1.1,0.8s0.9-0.4,1.1-0.8C5.5,1.2,5.6,1,5.9,1c0.2,0,0.4,0.2,0.6,0.5C6.7,1.9,7,2.3,7.6,2.3
		s0.9-0.4,1.1-0.8C8.9,1.2,9,1,9.3,1c0.2,0,0.4,0.2,0.6,0.5c0.2,0.3,0.5,0.8,1.1,0.8c0.2,0,0.3-0.1,0.3-0.3
		C11.3,1.9,11.1,1.7,11,1.7z"/>
	<path class="st1" d="M21.3,1.7c-0.2,0-0.4-0.2-0.6-0.5s-0.5-0.8-1.1-0.8s-0.9,0.4-1.1,0.8c-0.2,0.3-0.3,0.5-0.6,0.5
		c-0.2,0-0.4-0.2-0.6-0.5s-0.5-0.8-1.1-0.8s-0.9,0.4-1.1,0.8c-0.2,0.3-0.3,0.5-0.6,0.5c-0.2,0-0.4-0.2-0.6-0.5
		c-0.2-0.3-0.5-0.8-1.1-0.8s-0.9,0.4-1.1,0.8c-0.2,0.3-0.3,0.5-0.6,0.5c-0.2,0-0.3,0.1-0.3,0.3s0.1,0.3,0.3,0.3
		c0.6,0,0.9-0.4,1.1-0.8C12.4,1.2,12.6,1,12.8,1s0.4,0.2,0.6,0.5c0.2,0.3,0.5,0.8,1.1,0.8s0.9-0.4,1.1-0.8C15.8,1.2,16,1,16.2,1
		s0.4,0.2,0.6,0.5s0.5,0.8,1.1,0.8s0.9-0.4,1.1-0.8C19.2,1.2,19.4,1,19.6,1s0.4,0.2,0.6,0.5s0.5,0.8,1.1,0.8c0.2,0,0.3-0.1,0.3-0.3
		C21.6,1.9,21.5,1.7,21.3,1.7z"/>
</g>
</svg>
